<?xml version="1.0" encoding="UTF-8" standalone="no"?>
<!DOCTYPE svg PUBLIC "-//W3C//DTD SVG 1.1//EN" "http://www.w3.org/Graphics/SVG/1.1/DTD/svg11.dtd">
<svg width="100%" height="100%" viewBox="0 0 3163 1302" version="1.1" xmlns="http://www.w3.org/2000/svg" xmlns:xlink="http://www.w3.org/1999/xlink" xml:space="preserve" xmlns:serif="http://www.serif.com/" style="fill-rule:evenodd;clip-rule:evenodd;stroke-linecap:round;stroke-linejoin:round;stroke-miterlimit:1.5;">
    <g id="Mesa-de-trabajo5" serif:id="Mesa de trabajo5" transform="matrix(0.773407,0,0,0.37983,6521.852072,412.297093)">
        <rect x="-8432.63" y="-1085.479" width="4088.523" height="3425.52" style="fill:none;"/>
        <g transform="matrix(1.020754,0,0,2.078453,-19565.012482,-18069.191453)">
            <g>
                <g transform="matrix(1,0,0,1,11182.543828,7043.346229)">
                    <path d="M548.894,1543.601L548.894,1543.521L548.892,1543.147L548.893,1543.148C548.882,1348.786 706.693,1190.99 901.055,1190.99C1095.418,1190.99 1253.216,1348.788 1253.216,1543.152C1253.216,1548.455 1253.099,1553.732 1252.867,1558.978L1253.425,1562.808C1260.242,1789.336 1432.865,1974.484 1653.949,2000.965C1658.023,2001.453 1662.141,2001.453 1666.215,2000.965C1674.946,1999.919 1683.774,1999.194 1692.689,1998.799L1692.675,1998.179C1697.934,1998.359 1703.215,1998.451 1708.518,1998.45L1708.891,1998.45C1888.775,1998.638 2037.28,2133.971 2058.162,2308.312C2059.823,2322.181 2060.677,2336.298 2060.677,2350.612C2060.677,2355.915 2060.559,2361.192 2060.327,2366.438C2052.056,2553.476 1897.577,2702.773 1708.515,2702.773C1519.453,2702.773 1364.974,2553.476 1356.703,2366.438C1356.627,2364.721 1356.467,2363.026 1356.229,2361.358C1356.312,2357.786 1356.354,2354.204 1356.354,2350.612C1356.354,2099.475 1152.584,1895.557 901.505,1895.313L901.454,1895.313L901.055,1895.313C895.749,1895.313 890.474,1895.196 885.228,1894.964C884.469,1894.93 883.709,1894.913 882.95,1894.913L882.361,1895.507L881.399,1895.522C654.87,1902.338 469.722,2074.962 443.241,2296.046C442.753,2300.12 442.753,2304.238 443.241,2308.312C444.903,2322.181 445.756,2336.298 445.756,2350.612C445.756,2544.975 287.958,2702.773 93.595,2702.773C-100.768,2702.773 -258.567,2544.975 -258.567,2350.612C-258.567,2161.55 -109.269,2007.07 77.768,1998.799L77.754,1998.179C83.012,1998.359 88.293,1998.45 93.595,1998.45C344.731,1998.45 548.65,1794.681 548.894,1543.601Z" style="fill:rgb(245,245,245);"/>
                </g>
                <g transform="matrix(1.075315,0,0,1.074842,9792.886523,7320.765234)">
                    <path d="M1778.03,1959.017C1778.198,1960.472 1778.306,1961.945 1778.351,1963.436C1783.538,2135.816 1912.858,2277.234 2079.895,2301.216C2090.068,2300.222 2100.338,2299.564 2110.694,2299.252L2111.656,2299.237L2112.245,2298.644C2113.005,2298.644 2113.764,2298.66 2114.523,2298.694C2119.77,2298.926 2125.046,2299.043 2130.35,2299.043C2324.713,2299.043 2482.512,2141.245 2482.512,1946.882C2482.512,1752.518 2324.713,1594.72 2130.35,1594.72C1935.99,1594.72 1778.18,1752.513 1778.189,1946.872L1778.189,1947.314C1778.186,1951.227 1778.133,1955.128 1778.03,1959.017Z" style="fill:rgb(245,245,245);stroke:rgb(245,245,245);stroke-width:1.18px;"/>
                </g>
            </g>
            <g transform="matrix(-1,-0,0,-1,25813.761632,18004.500086)">
                <g transform="matrix(1,0,0,1,11182.543828,7043.346229)">
                    <path d="M548.894,1543.601L548.894,1543.521L548.892,1543.147L548.893,1543.148C548.882,1348.786 706.693,1190.99 901.055,1190.99C1095.418,1190.99 1253.216,1348.788 1253.216,1543.152C1253.216,1548.455 1253.099,1553.732 1252.867,1558.978L1253.425,1562.808C1260.242,1789.336 1432.865,1974.484 1653.949,2000.965C1658.023,2001.453 1662.141,2001.453 1666.215,2000.965C1674.946,1999.919 1683.774,1999.194 1692.689,1998.799L1692.675,1998.179C1697.934,1998.359 1703.215,1998.451 1708.518,1998.45L1708.891,1998.45C1888.775,1998.638 2037.28,2133.971 2058.162,2308.312C2059.823,2322.181 2060.677,2336.298 2060.677,2350.612C2060.677,2355.915 2060.559,2361.192 2060.327,2366.438C2052.056,2553.476 1897.577,2702.773 1708.515,2702.773C1519.453,2702.773 1364.974,2553.476 1356.703,2366.438C1356.627,2364.721 1356.467,2363.026 1356.229,2361.358C1356.312,2357.786 1356.354,2354.204 1356.354,2350.612C1356.354,2099.475 1152.584,1895.557 901.505,1895.313L901.454,1895.313L901.055,1895.313C895.749,1895.313 890.474,1895.196 885.228,1894.964C884.469,1894.93 883.709,1894.913 882.95,1894.913L882.361,1895.507L881.399,1895.522C654.87,1902.338 469.722,2074.962 443.241,2296.046C442.753,2300.12 442.753,2304.238 443.241,2308.312C444.903,2322.181 445.756,2336.298 445.756,2350.612C445.756,2544.975 287.958,2702.773 93.595,2702.773C-100.768,2702.773 -258.567,2544.975 -258.567,2350.612C-258.567,2161.55 -109.269,2007.07 77.768,1998.799L77.754,1998.179C83.012,1998.359 88.293,1998.45 93.595,1998.45C344.731,1998.45 548.65,1794.681 548.894,1543.601Z" style="fill:rgb(245,245,245);"/>
                </g>
                <g transform="matrix(1.075315,0,0,1.074842,9792.886523,7320.765234)">
                    <path d="M1778.03,1959.017C1778.198,1960.472 1778.306,1961.945 1778.351,1963.436C1783.538,2135.816 1912.858,2277.234 2079.895,2301.216C2090.068,2300.222 2100.338,2299.564 2110.694,2299.252L2111.656,2299.237L2112.245,2298.644C2113.005,2298.644 2113.764,2298.66 2114.523,2298.694C2119.77,2298.926 2125.046,2299.043 2130.35,2299.043C2324.713,2299.043 2482.512,2141.245 2482.512,1946.882C2482.512,1752.518 2324.713,1594.72 2130.35,1594.72C1935.99,1594.72 1778.18,1752.513 1778.189,1946.872L1778.189,1947.314C1778.186,1951.227 1778.133,1955.128 1778.03,1959.017Z" style="fill:rgb(245,245,245);stroke:rgb(245,245,245);stroke-width:1.18px;"/>
                </g>
            </g>
        </g>
    </g>
</svg>




